<svg width="1060" height="280" viewBox="0 0 1060 280" fill="none" xmlns="http://www.w3.org/2000/svg">
<path fill-rule="evenodd" clip-rule="evenodd" d="M146.935 88.3215C159.389 81.4432 172.292 78.125 185 78.125C197.708 78.125 210.611 81.4432 223.065 88.3215C233.098 93.8623 242.772 101.686 251.589 111.737C245.194 126.411 240.023 143.084 236.288 161.117C231.722 183.167 230 206.621 230 230H258.125C258.125 207.905 259.761 186.463 263.829 166.821C265.789 157.356 268.157 148.442 270.863 140.173C275.574 149.194 279.616 159.003 282.865 169.461C288.782 188.508 291.875 209.095 291.875 230H320C320 206.362 316.508 182.956 309.724 161.117C303.703 141.737 295.195 123.929 284.595 108.484C290.671 97.8505 297.017 90.2654 302.938 85.3601C309.951 79.5509 314.384 78.125 320 78.125C325.616 78.125 330.049 79.5509 337.062 85.3601C344.178 91.2555 351.908 101.022 359.046 115.299C366.128 129.463 372.05 146.922 376.171 166.821C380.239 186.463 381.875 207.905 381.875 230H410C410 206.621 408.278 183.167 403.712 161.117C399.189 139.278 392.559 119.435 384.202 102.721C375.845 86.0057 365.923 72.7473 355.004 63.7017C344.173 54.7292 333.601 50 320 50C306.399 50 295.827 54.7292 284.996 63.7017C278.107 69.4087 271.615 76.7926 265.663 85.6636C256.734 76.7927 246.996 69.4087 236.662 63.7017C220.283 54.6556 202.728 50 185 50C167.272 50 149.717 54.6556 133.338 63.7017C116.959 72.7474 102.077 86.0059 89.5406 102.721C77.0047 119.435 67.0607 139.278 60.2763 161.117C53.4919 182.956 50 206.362 50 230H78.125C78.125 209.095 81.218 188.508 87.135 169.461C93.0551 150.405 101.609 133.505 112.041 119.596C122.469 105.691 134.423 95.2313 146.935 88.3215Z" fill="#6F6F6F"/>
<path d="M510 189.983V95.3352H529.403V109.532H533.189C534.871 104.695 537.711 100.751 541.707 97.7014C545.703 94.5465 551.172 92.969 558.113 92.969C564.738 92.969 570.207 94.4413 574.518 97.3859C578.935 100.331 582.195 104.379 584.299 109.532H588.085C589.978 104.59 592.975 100.593 597.076 97.5437C601.283 94.4939 606.856 92.969 613.797 92.969C624.103 92.969 631.675 96.3343 636.513 103.065C641.35 109.69 643.769 118.524 643.769 129.566V189.983H622.473V133.51C622.473 126.254 621.264 120.627 618.845 116.631C616.532 112.635 612.746 110.637 607.487 110.637C601.072 110.637 596.13 113.371 592.659 118.839C589.294 124.308 587.611 130.986 587.611 138.873V189.983H566.158V133.51C566.158 126.254 565.001 120.627 562.687 116.631C560.374 112.635 556.588 110.637 551.33 110.637C544.915 110.637 539.972 113.371 536.501 118.839C533.031 124.308 531.296 130.986 531.296 138.873V189.983H510Z" fill="#171717"/>
<path d="M705.544 192.349C691.137 192.349 680.147 187.88 672.575 178.941C665.003 169.897 661.217 157.75 661.217 142.501C661.217 132.406 662.9 123.677 666.265 116.316C669.63 108.954 674.573 103.223 681.093 99.1211C687.719 95.0197 695.764 92.969 705.229 92.969C718.795 92.969 729.154 97.2282 736.305 105.746C743.456 114.16 747.031 126.516 747.031 142.817V147.865H682.04C682.566 156.488 684.774 163.429 688.665 168.687C692.661 173.946 698.288 176.575 705.544 176.575C711.013 176.575 715.377 174.997 718.637 171.842C722.002 168.687 724.316 164.639 725.578 159.696H745.927C744.77 165.795 742.562 171.316 739.302 176.259C736.147 181.097 731.783 184.988 726.209 187.932C720.635 190.877 713.747 192.349 705.544 192.349ZM682.198 133.668H726.209C725.788 125.57 723.738 119.313 720.057 114.896C716.481 110.479 711.486 108.27 705.071 108.27C698.446 108.27 693.187 110.426 689.296 114.738C685.405 119.05 683.039 125.36 682.198 133.668Z" fill="#171717"/>
<path d="M765.476 189.983V95.3352H784.721V112.056H788.507C789.137 109.217 790.294 106.43 791.977 103.696C793.66 100.962 796.236 98.7531 799.707 97.0704C803.282 95.2827 808.12 94.3888 814.219 94.3888H818.321V113.949H812.484C803.335 113.949 796.762 116.316 792.766 121.048C788.769 125.78 786.771 132.984 786.771 142.659V189.983H765.476Z" fill="#171717"/>
<path d="M842.978 189.983C840.349 186.828 838.351 183.2 836.984 179.099C835.722 174.997 835.091 169.213 835.091 161.747V63.7859H856.545V159.223C856.545 167.425 857.438 173.735 859.226 178.152C861.014 182.464 863.328 186.092 866.167 189.037V189.983H842.978Z" fill="#171717"/>
<path d="M882.491 189.983V95.3352H903.787V189.983H882.491ZM893.218 83.3465C889.327 83.3465 886.33 82.2948 884.227 80.1916C882.123 77.9831 881.072 75.1437 881.072 71.6732C881.072 68.2028 882.123 65.416 884.227 63.3127C886.33 61.1042 889.327 60 893.218 60C897.214 60 900.212 61.1042 902.21 63.3127C904.313 65.416 905.365 68.2028 905.365 71.6732C905.365 75.1437 904.313 77.9831 902.21 80.1916C900.212 82.2948 897.214 83.3465 893.218 83.3465Z" fill="#171717"/>
<path d="M929.076 189.983V95.3352H948.479V109.532H952.265C954.158 104.59 957.155 100.593 961.256 97.5437C965.463 94.4939 971.194 92.969 978.451 92.969C989.283 92.969 997.222 96.3343 1002.27 103.065C1007.42 109.69 1010 118.524 1010 129.566V189.983H988.704V133.51C988.704 126.148 987.39 120.522 984.761 116.631C982.131 112.635 977.977 110.637 972.299 110.637C965.358 110.637 959.942 113.371 956.051 118.839C952.265 124.203 950.372 130.881 950.372 138.873V189.983H929.076Z" fill="#171717"/>
</svg>
