<svg width="1600" height="820" viewBox="0 0 1600 820" fill="none" xmlns="http://www.w3.org/2000/svg">
<rect width="1600" height="820" fill="white"/>
<path fill-rule="evenodd" clip-rule="evenodd" d="M416.935 358.321C429.389 351.443 442.292 348.125 455 348.125C467.708 348.125 480.611 351.443 493.065 358.321C503.098 363.862 512.772 371.686 521.589 381.737C515.194 396.411 510.023 413.084 506.288 431.117C501.722 453.167 500 476.621 500 500H528.125C528.125 477.905 529.761 456.463 533.829 436.821C535.789 427.356 538.157 418.442 540.863 410.173C545.574 419.194 549.616 429.003 552.865 439.461C558.782 458.508 561.875 479.095 561.875 500H590C590 476.362 586.508 452.956 579.724 431.117C573.703 411.737 565.195 393.929 554.595 378.484C560.671 367.851 567.017 360.265 572.938 355.36C579.951 349.551 584.384 348.125 590 348.125C595.616 348.125 600.049 349.551 607.062 355.36C614.178 361.256 621.908 371.022 629.046 385.299C636.128 399.463 642.05 416.922 646.171 436.821C650.239 456.463 651.875 477.905 651.875 500H680C680 476.621 678.278 453.167 673.712 431.117C669.189 409.278 662.559 389.435 654.202 372.721C645.845 356.006 635.923 342.747 625.004 333.702C614.173 324.729 603.601 320 590 320C576.399 320 565.827 324.729 554.996 333.702C548.107 339.409 541.615 346.793 535.663 355.664C526.734 346.793 516.996 339.409 506.662 333.702C490.283 324.656 472.728 320 455 320C437.272 320 419.717 324.656 403.338 333.702C386.959 342.747 372.077 356.006 359.541 372.721C347.005 389.435 337.061 409.278 330.276 431.117C323.492 452.956 320 476.362 320 500H348.125C348.125 479.095 351.218 458.508 357.135 439.461C363.055 420.405 371.609 403.505 382.041 389.596C392.469 375.691 404.423 365.231 416.935 358.321Z" fill="#6F6F6F"/>
<path d="M780 459.983V365.335H799.403V379.532H803.189C804.871 374.695 807.711 370.751 811.707 367.701C815.703 364.547 821.172 362.969 828.113 362.969C834.738 362.969 840.207 364.441 844.518 367.386C848.935 370.331 852.195 374.379 854.299 379.532H858.085C859.978 374.59 862.975 370.593 867.076 367.544C871.283 364.494 876.856 362.969 883.797 362.969C894.103 362.969 901.675 366.334 906.513 373.065C911.35 379.69 913.769 388.524 913.769 399.566V459.983H892.473V403.51C892.473 396.254 891.264 390.627 888.845 386.631C886.532 382.635 882.746 380.637 877.487 380.637C871.072 380.637 866.13 383.371 862.659 388.839C859.294 394.308 857.611 400.986 857.611 408.873V459.983H836.158V403.51C836.158 396.254 835.001 390.627 832.687 386.631C830.374 382.635 826.588 380.637 821.33 380.637C814.915 380.637 809.972 383.371 806.501 388.839C803.031 394.308 801.296 400.986 801.296 408.873V459.983H780Z" fill="#171717"/>
<path d="M975.544 462.349C961.137 462.349 950.147 457.88 942.575 448.941C935.003 439.897 931.217 427.75 931.217 412.501C931.217 402.406 932.9 393.677 936.265 386.316C939.63 378.954 944.573 373.223 951.093 369.121C957.719 365.02 965.764 362.969 975.229 362.969C988.795 362.969 999.154 367.228 1006.3 375.746C1013.46 384.16 1017.03 396.516 1017.03 412.817V417.865H952.04C952.566 426.488 954.774 433.429 958.665 438.687C962.661 443.946 968.288 446.575 975.544 446.575C981.013 446.575 985.377 444.997 988.637 441.842C992.002 438.687 994.316 434.639 995.578 429.696H1015.93C1014.77 435.795 1012.56 441.316 1009.3 446.259C1006.15 451.097 1001.78 454.988 996.209 457.932C990.635 460.877 983.747 462.349 975.544 462.349ZM952.198 403.668H996.209C995.788 395.57 993.738 389.313 990.057 384.896C986.481 380.479 981.486 378.27 975.071 378.27C968.446 378.27 963.187 380.426 959.296 384.738C955.405 389.05 953.039 395.36 952.198 403.668Z" fill="#171717"/>
<path d="M1035.48 459.983V365.335H1054.72V382.056H1058.51C1059.14 379.217 1060.29 376.43 1061.98 373.696C1063.66 370.962 1066.24 368.753 1069.71 367.07C1073.28 365.283 1078.12 364.389 1084.22 364.389H1088.32V383.949H1082.48C1073.33 383.949 1066.76 386.316 1062.77 391.048C1058.77 395.78 1056.77 402.984 1056.77 412.659V459.983H1035.48Z" fill="#171717"/>
<path d="M1112.98 459.983C1110.35 456.828 1108.35 453.2 1106.98 449.099C1105.72 444.997 1105.09 439.213 1105.09 431.747V333.786H1126.54V429.223C1126.54 437.425 1127.44 443.735 1129.23 448.152C1131.01 452.464 1133.33 456.092 1136.17 459.037V459.983H1112.98Z" fill="#171717"/>
<path d="M1152.49 459.983V365.335H1173.79V459.983H1152.49ZM1163.22 353.346C1159.33 353.346 1156.33 352.295 1154.23 350.192C1152.12 347.983 1151.07 345.144 1151.07 341.673C1151.07 338.203 1152.12 335.416 1154.23 333.313C1156.33 331.104 1159.33 330 1163.22 330C1167.21 330 1170.21 331.104 1172.21 333.313C1174.31 335.416 1175.36 338.203 1175.36 341.673C1175.36 345.144 1174.31 347.983 1172.21 350.192C1170.21 352.295 1167.21 353.346 1163.22 353.346Z" fill="#171717"/>
<path d="M1199.08 459.983V365.335H1218.48V379.532H1222.26C1224.16 374.59 1227.15 370.593 1231.26 367.544C1235.46 364.494 1241.19 362.969 1248.45 362.969C1259.28 362.969 1267.22 366.334 1272.27 373.065C1277.42 379.69 1280 388.524 1280 399.566V459.983H1258.7V403.51C1258.7 396.148 1257.39 390.522 1254.76 386.631C1252.13 382.635 1247.98 380.637 1242.3 380.637C1235.36 380.637 1229.94 383.371 1226.05 388.839C1222.26 394.203 1220.37 400.881 1220.37 408.873V459.983H1199.08Z" fill="#171717"/>
</svg>
