<svg width="1000" height="1000" viewBox="0 0 1000 1000" fill="none" xmlns="http://www.w3.org/2000/svg">
<rect width="1000" height="1000" fill="white"/>
<path fill-rule="evenodd" clip-rule="evenodd" d="M352.329 398.127C374.469 385.899 397.409 380 420 380C442.591 380 465.531 385.899 487.671 398.127C505.507 407.977 522.706 421.885 538.38 439.755C527.012 465.842 517.819 495.482 511.179 527.541C503.061 566.742 500 608.438 500 650H550C550 610.72 552.908 572.601 560.14 537.681C563.625 520.854 567.835 505.008 572.646 490.307C581.02 506.345 588.206 523.782 593.982 542.375C604.501 576.236 610 612.836 610 650H660C660 607.977 653.792 566.365 641.731 527.541C631.028 493.088 615.901 461.429 597.057 433.972C607.86 415.068 619.142 401.583 629.668 392.862C642.135 382.535 650.016 380 660 380C669.984 380 677.865 382.535 690.332 392.862C702.983 403.343 716.725 420.705 729.416 446.087C742.006 471.267 752.533 502.307 759.86 537.681C767.092 572.601 770 610.72 770 650H820C820 608.438 816.939 566.742 808.821 527.541C800.78 488.717 788.994 453.441 774.137 423.726C759.279 394.01 741.641 370.44 722.229 354.359C702.975 338.407 684.179 330 660 330C635.821 330 617.025 338.407 597.771 354.359C585.524 364.504 573.982 377.631 563.4 393.402C547.526 377.631 530.215 364.504 511.844 354.359C482.725 338.277 451.516 330 420 330C388.484 330 357.275 338.277 328.156 354.359C299.038 370.44 272.581 394.011 250.294 423.726C228.008 453.44 210.33 488.717 198.269 527.541C186.208 566.365 180 607.977 180 650H230C230 612.836 235.499 576.236 246.018 542.375C256.542 508.497 271.749 478.453 290.294 453.726C308.834 429.006 330.086 410.411 352.329 398.127Z" fill="#171717"/>
</svg>
